# xmcd
#
# Track frame offsets:
#	150
#	15975
#	28575
#	42600
#	60220
#	73264
#	95382
#	108957
#	126357
#	140307
#	160707
#	176082
#	188450
#	209000
#	223318
#	240418
#
# Disc length: 3377 seconds
#
# Revision: 1
# Processed by: cddbd v1.5.2PL0 Copyright (c) Steve Scherf et al.
# Submitted via: audiograbber 1.83.01
#
DISCID=de0d2f10
DTITLE=All Country Karaoke - AC-05
DYEAR=1900
DGENRE=
TTITLE0=Bundy, Laura Bell - Giddy On Up
TTITLE1=Lambert, Miranda - Love Song
TTITLE2=Steel Magnolias - Keep On Loving You
TTITLE3=Callait, Colbie - I Never Told You
TTITLE4=Corbin, Easton - A Little More Country Than That
TTITLE5=Lady Antebellum - When You Got A Good Thing
TTITLE6=Underwood, Carrie - Undo It
TTITLE7=Zac Brown Band - Highway 20 Ride
TTITLE8=Gokey, Danny - My Best Days Are Ahead Of Me
TTITLE9=Sugarland - What I'd Give
TTITLE10=Uncle Kracker - Smile
TTITLE11=Keith, Toby - American Ride
TTITLE12=Swift, Taylor - Change
TTITLE13=Lambert, Miranda - Makin' Plans
TTITLE14=Kennon, Matt - The Call
TTITLE15=Lady Antebellum - Ready To Love Again
EXTD=
EXTT0=
EXTT1=
EXTT2=
EXTT3=
EXTT4=
EXTT5=
EXTT6=
EXTT7=
EXTT8=
EXTT9=
EXTT10=
EXTT11=
EXTT12=
EXTT13=
EXTT14=
EXTT15=
PLAYORDER=
